<svg xmlns="http://www.w3.org/2000/svg" viewBox="0 0 99.349 17.71"><defs><style>.a{fill:#fff;}</style></defs><title>Element 19</title><path class="a" d="M58,4.554a7.2,7.2,0,0,0-4.532-1.568c-2.565,0-5.124,1.072-5.171,3.744-.049,2.769,2.692,3.723,4.895,3.857,1.605.075,2.218.54,2.208,1.088.014.622-1,1.218-2.008,1.177a6.333,6.333,0,0,1-4.075-1.566L47.723,13.5A8.108,8.108,0,0,0,53.3,15.561c3.762.065,5.235-1.922,5.244-3.831.054-3.092-2.762-3.771-5.087-3.883-1.15-.044-1.956-.415-1.945-1.06.01-.573.81-1.173,1.936-1.153a5.153,5.153,0,0,1,2.981.956Z"/><path class="a" d="M35.421,7.913H29.907a2.692,2.692,0,0,1,2.775-2.221c1.84,0,2.854,1.177,2.848,2.221M32.7,2.836A5.867,5.867,0,0,0,26.622,9.03a6.012,6.012,0,0,0,6.426,6.381,7.209,7.209,0,0,0,4.863-1.821l-1.823-2.066a4.926,4.926,0,0,1-3.007,1.108,3.107,3.107,0,0,1-3.292-2.458h8.642c.72-4.888-1.832-7.336-5.731-7.336"/><path class="a" d="M82.205,9.27c0,1.679-.838,3.345-2.861,3.345-2,0-2.862-1.743-2.862-3.345s.885-3.345,2.862-3.345c2,0,2.861,1.743,2.861,3.345m3.386,0a6.248,6.248,0,1,0-12.495,0,5.938,5.938,0,0,0,6.246,6.288A6.052,6.052,0,0,0,85.589,9.27"/><path class="a" d="M48.316,3.574a3.418,3.418,0,0,0-1.559-.4,4.142,4.142,0,0,0-3.143,1.824l-.63-1.6H40.319V15.449h3.392L43.736,9.2a2.578,2.578,0,0,1,2.571-2.855,3.163,3.163,0,0,1,.573.089Z"/><path class="a" d="M25.627,3.391H22.986V.456l-3.392.854V11c0,3.6,1.72,4.568,4.043,4.568a6.087,6.087,0,0,0,3.011-.843l-1.167-2.333a3.582,3.582,0,0,1-1.247.34c-.63,0-1.248-.2-1.248-1.758V6.406h2.638Z"/><rect class="a" y="3.391" width="3.391" height="12.058"/><path class="a" d="M17.334,15.449V9.068c0-4.678-2.281-5.918-4.829-5.918a3.607,3.607,0,0,0-3.3,1.8l-.556-1.56H6.029V15.449H9.044V9c0-1.774.91-2.861,2.534-2.837,1.671,0,2.364.98,2.364,2.837v6.448Z"/><path class="a" d="M71.6,15.449V9.05c0-4.69-2.371-5.933-5.021-5.933a3.95,3.95,0,0,0-3.269,1.76V0H59.914V15.449h3.391V9c0-1.774.91-2.861,2.534-2.837,1.673,0,2.365.98,2.365,2.837v6.448Z"/><path class="a" d="M96.15,9.185c0,1.656-.822,3.27-2.845,3.27-2,0-2.864-1.691-2.864-3.27s.885-3.26,2.864-3.26c2,0,2.845,1.68,2.845,3.26m3.2-.132c0-4.026-2.365-6.239-5.774-6.239A5.112,5.112,0,0,0,90.09,4.243l-.417-1.228H87.045v14.7h3.391V14.176a4.913,4.913,0,0,0,3.139,1.156c3.408,0,5.774-2.456,5.774-6.279"/></svg>